<svg xmlns="http://www.w3.org/2000/svg" xmlns:xlink="http://www.w3.org/1999/xlink" viewBox="0 0 20 20"><defs><style>.a{fill:url(#a);}.b{fill:gray;}</style><linearGradient id="a" x1="3" y1="10" x2="17" y2="10" gradientUnits="userSpaceOnUse"><stop offset="0" stop-color="gray" stop-opacity="0.8"/><stop offset="1" stop-color="gray" stop-opacity="0.2"/></linearGradient></defs><title>gradient</title><rect class="a" x="3" y="4" width="14" height="12"/><path class="b" d="M16.75,4a.245.245,0,0,1,.25.25v11.5a.245.245,0,0,1-.25.25H3.25A.245.245,0,0,1,3,15.75V4.25A.245.245,0,0,1,3.25,4ZM17,3H3A1.075,1.075,0,0,0,2,4V16a1.075,1.075,0,0,0,1,1H17a1.075,1.075,0,0,0,1-1V4A1.075,1.075,0,0,0,17,3Z"/></svg>